<svg width="180" height="103" viewBox="0 0 180 103" fill="none" xmlns="http://www.w3.org/2000/svg">
<path d="M76.691 93.192C75.667 94.0453 73.747 95.1973 70.931 96.648C68.2003 98.0987 64.8297 99.3787 60.819 100.488C56.8083 101.597 52.371 102.109 47.507 102.024C40.083 101.853 33.427 100.531 27.539 98.056C21.7363 95.496 16.787 92.04 12.691 87.688C8.68033 83.336 5.60833 78.344 3.475 72.712C1.34167 67.08 0.275 61.064 0.275 54.664C0.275 47.496 1.34167 40.9253 3.475 34.952C5.69367 28.9787 8.80833 23.816 12.819 19.464C16.915 15.112 21.779 11.7413 27.411 9.352C33.043 6.96266 39.2723 5.768 46.099 5.768C52.4137 5.768 58.003 6.62133 62.867 8.328C67.731 10.0347 71.699 11.8693 74.771 13.832L67.475 31.368C65.3417 29.7467 62.483 28.0827 58.899 26.376C55.4003 24.584 51.347 23.688 46.739 23.688C43.155 23.688 39.699 24.456 36.371 25.992C33.1283 27.4427 30.227 29.5333 27.667 32.264C25.1923 34.9947 23.2297 38.1947 21.779 41.864C20.3283 45.448 19.603 49.3733 19.603 53.64C19.603 58.1627 20.243 62.3013 21.523 66.056C22.8883 69.8107 24.8083 73.0533 27.283 75.784C29.7577 78.4293 32.7017 80.4773 36.115 81.928C39.6137 83.3787 43.539 84.104 47.891 84.104C52.9257 84.104 57.235 83.2933 60.819 81.672C64.403 80.0507 67.1337 78.344 69.011 76.552L76.691 93.192ZM92.341 101V0.00799561H109.877V56.328L109.749 54.152C111.712 50.6533 114.485 47.8373 118.069 45.704C121.653 43.4853 126.048 42.376 131.253 42.376C136.544 42.376 140.938 43.9547 144.437 47.112C148.021 50.184 149.856 54.1947 149.941 59.144V101H132.021V65.8C131.936 63.3253 131.253 61.3627 129.973 59.912C128.778 58.376 126.73 57.608 123.829 57.608C121.098 57.608 118.709 58.504 116.661 60.296C114.613 62.088 113.034 64.52 111.925 67.592C110.816 70.664 110.261 74.2053 110.261 78.216V101H92.341ZM161.045 91.784C161.045 89.1387 161.984 86.92 163.861 85.128C165.824 83.336 167.957 82.44 170.261 82.44C172.394 82.44 174.4 83.336 176.277 85.128C178.24 86.92 179.221 89.1387 179.221 91.784C179.221 94.6 178.24 96.8613 176.277 98.568C174.4 100.189 172.394 101 170.261 101C167.957 101 165.824 100.189 163.861 98.568C161.984 96.8613 161.045 94.6 161.045 91.784Z" fill="#23A811"/>
</svg>
